# xmcd
#
# Track frame offsets:
#	150
#	21176
#	40301
#	60176
#	79376
#	95501
#	108511
#	125012
#	139856
#	168005
#	184357
#
# Disc length: 2499 seconds
# Revision: 0
# Processed by: cddbd v1.5.2PL0 Copyright (c) Steve Scherf et al.
# Submitted via: dBpowerAMP V12.0
#
DISCID=9209c10b
DTITLE=Daedelus - Bespoke
DYEAR=2011
DGENRE=Electronic
TTITLE0=Tailor-Made
TTITLE1=Sew Darn Mend
TTITLE2=Penny Loafers
TTITLE3=One and Lonely
TTITLE4=Suit Yourself
TTITLE5=What Can You Do?
TTITLE6=French Cuffs
TTITLE7=In Tatters
TTITLE8=Slowercase D
TTITLE9=Overwhelmed
TTITLE10=Nightcap
EXTD=
EXTT0=
EXTT1=
EXTT2=
EXTT3=
EXTT4=
EXTT5=
EXTT6=
EXTT7=
EXTT8=
EXTT9=
EXTT10=
PLAYORDER=
